{"title":"15.Till.Midnight.2010.DVDRiP.XviD-SiC","uid":6464903,"size":1086312303,"categoryP":"video","categoryS":"movies","magnet":"?xt=urn:btih:69c3fa46bc4b124a448d890a8809ed83fdf73f31&amp;dn=15.Till.Midnight.2010.DVDRiP.XviD-SiC&amp;tr=udp%3A%2F%2Ftracker.openbittorrent.com%3A80&amp;tr=udp%3A%2F%2Fopen.demonii.com%3A1337&amp;tr=udp%3A%2F%2Ftracker.coppersurfer.tk%3A6969&amp;tr=udp%3A%2F%2Fexodus.desync.com%3A6969","seeders":0,"leechers":2,"uploader":"TvTeam","files":5,"time":1307927806,"description":". \n  &lt;a href=&quot;\nhttp://www.torrenting.com/&quot; rel=&quot;nofollow&quot; target=&quot;_NEW&quot;&gt;\nhttp://www.torrenting.com/&lt;/a&gt;        :     Greatest Movie Tracker on The Net!!!\n &lt;a href=&quot;\nhttp://www.Torrenting.com&quot; rel=&quot;nofollow&quot; target=&quot;_NEW&quot;&gt;\nhttp://www.Torrenting.com&lt;/a&gt;          :     Once &amp; For all ;)\n\n\n               www . Torrenting . Com \n\n(((((((((((((= Enjoy No RAR releases =))))))))))))))))))))\n\n\n...................................NFO:....................................\n\n.\n\n\n\n\n\n\n\n\n\n\n\n\n\n\n\n\n\n\n\n\n\n\n\n\n\n\n\n\n\n\n\n\n\n\n\n\n\n\n\n\n          \n          \n              \n              \n                    \n                    \n                    \n                    \n\n15.Till.Midnight.2010.DVDRiP.XviD-SiC\n\nPoster:\n[img]http://leetleech.org/images/94858943730782607337.jpg[/img]\n\nIMDB Link:\nhttp://www.imdb.com/title/tt1568798/\n\nDescription:\nParallel worlds collide as a secret society policing this phenomena track a man whose wife has seemingly disappeared. \n\nGeneral\nComplete name                    : 15.Till.Midnight.2010.DVDRiP.XviD-SiC.avi\nFormat                           : AVI\nFormat/Info                      : Audio Video Interleave\nFile size                        : 1.00 GiB\nDuration                         : 1h 49mn\nOverall bit rate                 : 1 310 Kbps\nWriting application              : VirtualDubMod 1.5.4.1 (build 2178/release)\nWriting library                  : VirtualDubMod build 2178/release\n\nVideo\nID                               : 0\nFormat                           : MPEG-4 Visual\nFormat profile                   : Advanced Simple@L5\nFormat settings, BVOP            : 1\nFormat settings, QPel            : No\nFormat settings, GMC             : No warppoints\nFormat settings, Matrix          : Custom\nCodec ID                         : XVID\nCodec ID/Hint                    : XviD\nDuration                         : 1h 49mn\nBit rate                         : 855 Kbps\nWidth                            : 720 pixels\nHeight                           : 304 pixels\nDisplay aspect ratio             : 2.35:1\nFrame rate                       : 23.976 fps\nColor space                      : YUV\nChroma subsampling               : 4:2:0\nBit depth                        : 8 bits\nScan type                        : Progressive\nCompression mode                 : Lossy\nBits/(Pixel*Frame)               : 0.163\nStream size                      : 669 MiB (65%)\nWriting library                  : XviD 63\n\nAudio\nID                               : 1\nFormat                           : AC-3\nFormat/Info                      : Audio Coding 3\nMode extension                   : CM (complete main)\nCodec ID                         : 2000\nDuration                         : 1h 49mn\nBit rate mode                    : Constant\nBit rate                         : 448 Kbps\nChannel(s)                       : 2 channels\nChannel positions                : Front: L R\nSampling rate                    : 48.0 KHz\nBit depth                        : 16 bits\nCompression mode                 : Lossy\nStream size                      : 350 MiB (34%)\nAlignment                        : Split accross interleaves\nInterleave, duration             : 96 ms (2.30 video frames)\nInterleave, preload duration     : 96 ms\n\n\n\n\nScreenshots:\n[img]http://leetleech.org/images/70802063847805710114.png[/img]\n[img]http://leetleech.org/images/39255632252874365479.png[/img]\n[img]http://leetleech.org/images/26998689169778238372.png[/img]\n[img]http://leetleech.org/images/72590332340455626240.png[/img]\n[img]http://leetleech.org/images/36157840849357032979.png[/img]\n\nNote: N/A\n\nEncoder: thefuzz\n\nEnjoy!\n\nRespects to CaptainHomey, Cyanide, CM8, Rx, Pirate666, THC, ELEKTRI4KA, Killerhz, \nXtremE, PA, YeFsTe and everyone in the struggle...","torrent":{"xt":"urn:btih:69c3fa46bc4b124a448d890a8809ed83fdf73f31","amp;dn":"15.Till.Midnight.2010.DVDRiP.XviD-SiC","amp;tr":["udp%3A%2F%2Ftracker.openbittorrent.com%3A80","udp%3A%2F%2Fopen.demonii.com%3A1337","udp%3A%2F%2Ftracker.coppersurfer.tk%3A6969","udp%3A%2F%2Fexodus.desync.com%3A6969"],"infoHash":"69c3fa46bc4b124a448d890a8809ed83fdf73f31","infoHashBuffer":{"type":"Buffer","data":[105,195,250,70,188,75,18,74,68,141,137,10,136,9,237,131,253,247,63,49]},"announce":[],"urlList":[]}}